<?xml version="1.0" encoding="UTF-8" standalone="no"?>
<!DOCTYPE svg PUBLIC "-//W3C//DTD SVG 1.1//EN"
 "http://www.w3.org/Graphics/SVG/1.1/DTD/svg11.dtd">
<!-- Generated by graphviz version 2.28.0 (20130302.1133)
 -->
<!-- Title: G Pages: 1 -->
<svg width="548pt" height="585pt"
 viewBox="0.00 0.00 548.00 585.00" xmlns="http://www.w3.org/2000/svg" xmlns:xlink="http://www.w3.org/1999/xlink">
<g id="graph1" class="graph" transform="scale(1 1) rotate(0) translate(4 581)">
<title>G</title>
<polygon fill="white" stroke="white" points="-4,5 -4,-581 545,-581 545,5 -4,5"/>
<g id="graph2" class="cluster"><title>cluster_IMDb_Markup_Syntax</title>
<polyline fill="none" stroke="gray" points="344,-8 520,-8 "/>
<path fill="none" stroke="gray" d="M520,-8C526,-8 532,-14 532,-20"/>
<polyline fill="none" stroke="gray" points="532,-20 532,-557 "/>
<path fill="none" stroke="gray" d="M532,-557C532,-563 526,-569 520,-569"/>
<polyline fill="none" stroke="gray" points="520,-569 344,-569 "/>
<path fill="none" stroke="gray" d="M344,-569C338,-569 332,-563 332,-557"/>
<polyline fill="none" stroke="gray" points="332,-557 332,-20 "/>
<path fill="none" stroke="gray" d="M332,-20C332,-14 338,-8 344,-8"/>
<text text-anchor="middle" x="432" y="-554" font-family="Times,serif" font-size="11.00" fill="gray">IMDb_Markup_Syntax</text>
</g>
<g id="graph3" class="cluster"><title>cluster_IMDb_Markup_Syntax\Exceptions</title>
<polyline fill="none" stroke="gray" points="352,-305 512,-305 "/>
<path fill="none" stroke="gray" d="M512,-305C518,-305 524,-311 524,-317"/>
<polyline fill="none" stroke="gray" points="524,-317 524,-528 "/>
<path fill="none" stroke="gray" d="M524,-528C524,-534 518,-540 512,-540"/>
<polyline fill="none" stroke="gray" points="512,-540 352,-540 "/>
<path fill="none" stroke="gray" d="M352,-540C346,-540 340,-534 340,-528"/>
<polyline fill="none" stroke="gray" points="340,-528 340,-317 "/>
<path fill="none" stroke="gray" d="M340,-317C340,-311 346,-305 352,-305"/>
<text text-anchor="middle" x="432" y="-525" font-family="Times,serif" font-size="11.00" fill="gray">Exceptions</text>
</g>
<g id="graph4" class="cluster"><title>cluster_IMDb_Markup_Syntax\Tests</title>
<polyline fill="none" stroke="gray" points="362,-170 502,-170 "/>
<path fill="none" stroke="gray" d="M502,-170C508,-170 514,-176 514,-182"/>
<polyline fill="none" stroke="gray" points="514,-182 514,-285 "/>
<path fill="none" stroke="gray" d="M514,-285C514,-291 508,-297 502,-297"/>
<polyline fill="none" stroke="gray" points="502,-297 362,-297 "/>
<path fill="none" stroke="gray" d="M362,-297C356,-297 350,-291 350,-285"/>
<polyline fill="none" stroke="gray" points="350,-285 350,-182 "/>
<path fill="none" stroke="gray" d="M350,-182C350,-176 356,-170 362,-170"/>
<text text-anchor="middle" x="432" y="-282" font-family="Times,serif" font-size="11.00" fill="gray">Tests</text>
</g>
<!-- \\IMDb_Markup_Syntax\\Exceptions\\Curl_Exception -->
<g id="node3" class="node"><title>\\IMDb_Markup_Syntax\\Exceptions\\Curl_Exception</title>
<a xlink:href="Exceptions.class-curl-exception.html" xlink:title="Curl_Exception" target="_parent">
<polygon fill="none" stroke="black" points="486.416,-511 377.584,-511 377.584,-475 486.416,-475 486.416,-511"/>
<text text-anchor="middle" x="432" y="-488.6" font-family="Courier,monospace" font-size="11.00">Curl_Exception</text>
</a>
</g>
<!-- \\Exception -->
<g id="node16" class="node"><title>\\Exception</title>
<ellipse fill="none" stroke="black" cx="138" cy="-412" rx="52.7417" ry="18"/>
<text text-anchor="middle" x="138" y="-406.4" font-family="Times,serif" font-size="14.00" fill="gray">\Exception</text>
</g>
<!-- \\IMDb_Markup_Syntax\\Exceptions\\Curl_Exception&#45;&gt;\\Exception -->
<g id="edge7" class="edge"><title>\\IMDb_Markup_Syntax\\Exceptions\\Curl_Exception&#45;&gt;\\Exception</title>
<path fill="none" stroke="black" d="M377.548,-478.491C362.786,-474.465 346.768,-470.08 332,-466 283.511,-452.605 228.233,-437.116 189.3,-426.171"/>
<polygon fill="none" stroke="black" points="189.845,-422.688 179.27,-423.35 187.949,-429.427 189.845,-422.688"/>
</g>
<!-- \\IMDb_Markup_Syntax\\Exceptions\\Error_Runtime_Exception -->
<g id="node4" class="node"><title>\\IMDb_Markup_Syntax\\Exceptions\\Error_Runtime_Exception</title>
<a xlink:href="Exceptions.class-error-runtime-exception.html" xlink:title="Error_Runtime_Exception" target="_parent">
<polygon fill="none" stroke="black" points="515.825,-457 348.175,-457 348.175,-421 515.825,-421 515.825,-457"/>
<text text-anchor="middle" x="432" y="-434.6" font-family="Courier,monospace" font-size="11.00">Error_Runtime_Exception</text>
</a>
</g>
<!-- \\IMDb_Markup_Syntax\\Exceptions\\Error_Runtime_Exception&#45;&gt;\\Exception -->
<g id="edge9" class="edge"><title>\\IMDb_Markup_Syntax\\Exceptions\\Error_Runtime_Exception&#45;&gt;\\Exception</title>
<path fill="none" stroke="black" d="M348.106,-431.335C300.653,-426.947 242.186,-421.541 199.152,-417.562"/>
<polygon fill="none" stroke="black" points="199.393,-414.069 189.114,-416.634 198.749,-421.04 199.393,-414.069"/>
</g>
<!-- \\IMDb_Markup_Syntax\\Exceptions\\Json_Exception -->
<g id="node5" class="node"><title>\\IMDb_Markup_Syntax\\Exceptions\\Json_Exception</title>
<a xlink:href="Exceptions.class-json-exception.html" xlink:title="Json_Exception" target="_parent">
<polygon fill="none" stroke="black" points="486.416,-403 377.584,-403 377.584,-367 486.416,-367 486.416,-403"/>
<text text-anchor="middle" x="432" y="-380.6" font-family="Courier,monospace" font-size="11.00">Json_Exception</text>
</a>
</g>
<!-- \\IMDb_Markup_Syntax\\Exceptions\\Json_Exception&#45;&gt;\\Exception -->
<g id="edge11" class="edge"><title>\\IMDb_Markup_Syntax\\Exceptions\\Json_Exception&#45;&gt;\\Exception</title>
<path fill="none" stroke="black" d="M377.782,-389.921C327.508,-394.57 252.171,-401.536 199.606,-406.396"/>
<polygon fill="none" stroke="black" points="199.046,-402.933 189.411,-407.339 199.691,-409.903 199.046,-402.933"/>
</g>
<!-- \\IMDb_Markup_Syntax\\Exceptions\\PCRE_Exception -->
<g id="node6" class="node"><title>\\IMDb_Markup_Syntax\\Exceptions\\PCRE_Exception</title>
<a xlink:href="Exceptions.class-pcre-exception.html" xlink:title="PCRE_Exception" target="_parent">
<polygon fill="none" stroke="black" points="486.416,-349 377.584,-349 377.584,-313 486.416,-313 486.416,-349"/>
<text text-anchor="middle" x="432" y="-326.6" font-family="Courier,monospace" font-size="11.00">PCRE_Exception</text>
</a>
</g>
<!-- \\IMDb_Markup_Syntax\\Exceptions\\PCRE_Exception&#45;&gt;\\Exception -->
<g id="edge13" class="edge"><title>\\IMDb_Markup_Syntax\\Exceptions\\PCRE_Exception&#45;&gt;\\Exception</title>
<path fill="none" stroke="black" d="M377.548,-345.509C362.786,-349.535 346.768,-353.92 332,-358 283.511,-371.395 228.233,-386.884 189.3,-397.829"/>
<polygon fill="none" stroke="black" points="187.949,-394.573 179.27,-400.65 189.845,-401.312 187.949,-394.573"/>
</g>
<!-- \\IMDb_Markup_Syntax\\Tests\\Movie_DatasourceTest -->
<g id="node8" class="node"><title>\\IMDb_Markup_Syntax\\Tests\\Movie_DatasourceTest</title>
<a xlink:href="Tests.Movie_DatasourceTest.html" xlink:title="Movie_DatasourceTest" target="_parent">
<polygon fill="none" stroke="black" points="506.021,-268 357.979,-268 357.979,-232 506.021,-232 506.021,-268"/>
<text text-anchor="middle" x="432" y="-245.6" font-family="Courier,monospace" font-size="11.00">Movie_DatasourceTest</text>
</a>
</g>
<!-- \\PHPUnit_Framework_TestCase -->
<g id="node21" class="node"><title>\\PHPUnit_Framework_TestCase</title>
<ellipse fill="none" stroke="black" cx="138" cy="-223" rx="137.502" ry="18"/>
<text text-anchor="middle" x="138" y="-217.4" font-family="Times,serif" font-size="14.00" fill="gray">\PHPUnit_Framework_TestCase</text>
</g>
<!-- \\IMDb_Markup_Syntax\\Tests\\Movie_DatasourceTest&#45;&gt;\\PHPUnit_Framework_TestCase -->
<g id="edge15" class="edge"><title>\\IMDb_Markup_Syntax\\Tests\\Movie_DatasourceTest&#45;&gt;\\PHPUnit_Framework_TestCase</title>
<path fill="none" stroke="black" d="M357.693,-243.222C328.374,-240.511 293.805,-237.314 260.913,-234.273"/>
<polygon fill="none" stroke="black" points="261.047,-230.77 250.767,-233.335 260.402,-237.741 261.047,-230.77"/>
</g>
<!-- \\IMDb_Markup_Syntax\\Tests\\Tag_ProcessingTest -->
<g id="node9" class="node"><title>\\IMDb_Markup_Syntax\\Tests\\Tag_ProcessingTest</title>
<a xlink:href="Tests.Tag_ProcessingTest.html" xlink:title="Tag_ProcessingTest" target="_parent">
<polygon fill="none" stroke="black" points="499.319,-214 364.681,-214 364.681,-178 499.319,-178 499.319,-214"/>
<text text-anchor="middle" x="432" y="-191.6" font-family="Courier,monospace" font-size="11.00">Tag_ProcessingTest</text>
</a>
</g>
<!-- \\IMDb_Markup_Syntax\\Tests\\Tag_ProcessingTest&#45;&gt;\\PHPUnit_Framework_TestCase -->
<g id="edge17" class="edge"><title>\\IMDb_Markup_Syntax\\Tests\\Tag_ProcessingTest&#45;&gt;\\PHPUnit_Framework_TestCase</title>
<path fill="none" stroke="black" d="M364.375,-202.161C333.812,-204.987 296.581,-208.429 261.256,-211.696"/>
<polygon fill="none" stroke="black" points="260.494,-208.251 250.859,-212.657 261.139,-215.221 260.494,-208.251"/>
</g>
<!-- \\IMDb_Markup_Syntax\\Markup_Data -->
<g id="node10" class="node"><title>\\IMDb_Markup_Syntax\\Markup_Data</title>
<a xlink:href="class-markup-data.html" xlink:title="Markup_Data" target="_parent">
<polygon fill="none" stroke="black" points="476.113,-160 387.887,-160 387.887,-124 476.113,-124 476.113,-160"/>
<text text-anchor="middle" x="432" y="-137.6" font-family="Courier,monospace" font-size="11.00">Markup_Data</text>
</a>
</g>
<!-- \\IMDb_Markup_Syntax\\Movie_Datasource -->
<g id="node11" class="node"><title>\\IMDb_Markup_Syntax\\Movie_Datasource</title>
<a xlink:href="class-movie-datasource.html" xlink:title="Movie_Datasource" target="_parent">
<polygon fill="none" stroke="black" points="492.618,-106 371.382,-106 371.382,-70 492.618,-70 492.618,-106"/>
<text text-anchor="middle" x="432" y="-83.6" font-family="Courier,monospace" font-size="11.00">Movie_Datasource</text>
</a>
</g>
<!-- \\IMDb -->
<g id="node14" class="node"><title>\\IMDb</title>
<ellipse fill="none" stroke="black" cx="138" cy="-88" rx="37.1495" ry="18"/>
<text text-anchor="middle" x="138" y="-82.4" font-family="Times,serif" font-size="14.00" fill="gray">\IMDb</text>
</g>
<!-- \\IMDb_Markup_Syntax\\Movie_Datasource&#45;&gt;\\IMDb -->
<g id="edge5" class="edge"><title>\\IMDb_Markup_Syntax\\Movie_Datasource&#45;&gt;\\IMDb</title>
<path fill="none" stroke="black" d="M371.205,-88C316.373,-88 236.268,-88 185.921,-88"/>
<polygon fill="none" stroke="black" points="185.649,-84.5001 175.649,-88 185.649,-91.5001 185.649,-84.5001"/>
</g>
<!-- \\IMDb_Markup_Syntax\\Tag_Processing -->
<g id="node12" class="node"><title>\\IMDb_Markup_Syntax\\Tag_Processing</title>
<a xlink:href="class-tag-processing.html" xlink:title="Tag_Processing" target="_parent">
<polygon fill="none" stroke="black" points="486.416,-52 377.584,-52 377.584,-16 486.416,-16 486.416,-52"/>
<text text-anchor="middle" x="432" y="-29.6" font-family="Courier,monospace" font-size="11.00">Tag_Processing</text>
</a>
</g>
</g>
</svg>
