<?xml version="1.0" encoding="UTF-8" standalone="no"?>
<!DOCTYPE svg PUBLIC "-//W3C//DTD SVG 1.1//EN"
 "http://www.w3.org/Graphics/SVG/1.1/DTD/svg11.dtd">
<!-- Generated by graphviz version 2.28.0 (20130302.1133)
 -->
<!-- Title: G Pages: 1 -->
<svg width="548pt" height="639pt"
 viewBox="0.00 0.00 548.00 639.00" xmlns="http://www.w3.org/2000/svg" xmlns:xlink="http://www.w3.org/1999/xlink">
<g id="graph1" class="graph" transform="scale(1 1) rotate(0) translate(4 635)">
<title>G</title>
<polygon fill="white" stroke="white" points="-4,5 -4,-635 545,-635 545,5 -4,5"/>
<g id="graph2" class="cluster"><title>cluster_IMDb_Markup_Syntax</title>
<polyline fill="none" stroke="gray" points="344,-8 520,-8 "/>
<path fill="none" stroke="gray" d="M520,-8C526,-8 532,-14 532,-20"/>
<polyline fill="none" stroke="gray" points="532,-20 532,-611 "/>
<path fill="none" stroke="gray" d="M532,-611C532,-617 526,-623 520,-623"/>
<polyline fill="none" stroke="gray" points="520,-623 344,-623 "/>
<path fill="none" stroke="gray" d="M344,-623C338,-623 332,-617 332,-611"/>
<polyline fill="none" stroke="gray" points="332,-611 332,-20 "/>
<path fill="none" stroke="gray" d="M332,-20C332,-14 338,-8 344,-8"/>
<text text-anchor="middle" x="432" y="-608" font-family="Times,serif" font-size="11.00" fill="gray">IMDb_Markup_Syntax</text>
</g>
<g id="graph3" class="cluster"><title>cluster_IMDb_Markup_Syntax\Exceptions</title>
<polyline fill="none" stroke="gray" points="352,-359 512,-359 "/>
<path fill="none" stroke="gray" d="M512,-359C518,-359 524,-365 524,-371"/>
<polyline fill="none" stroke="gray" points="524,-371 524,-582 "/>
<path fill="none" stroke="gray" d="M524,-582C524,-588 518,-594 512,-594"/>
<polyline fill="none" stroke="gray" points="512,-594 352,-594 "/>
<path fill="none" stroke="gray" d="M352,-594C346,-594 340,-588 340,-582"/>
<polyline fill="none" stroke="gray" points="340,-582 340,-371 "/>
<path fill="none" stroke="gray" d="M340,-371C340,-365 346,-359 352,-359"/>
<text text-anchor="middle" x="432" y="-579" font-family="Times,serif" font-size="11.00" fill="gray">Exceptions</text>
</g>
<g id="graph4" class="cluster"><title>cluster_IMDb_Markup_Syntax\Tests</title>
<polyline fill="none" stroke="gray" points="362,-170 502,-170 "/>
<path fill="none" stroke="gray" d="M502,-170C508,-170 514,-176 514,-182"/>
<polyline fill="none" stroke="gray" points="514,-182 514,-339 "/>
<path fill="none" stroke="gray" d="M514,-339C514,-345 508,-351 502,-351"/>
<polyline fill="none" stroke="gray" points="502,-351 362,-351 "/>
<path fill="none" stroke="gray" d="M362,-351C356,-351 350,-345 350,-339"/>
<polyline fill="none" stroke="gray" points="350,-339 350,-182 "/>
<path fill="none" stroke="gray" d="M350,-182C350,-176 356,-170 362,-170"/>
<text text-anchor="middle" x="432" y="-336" font-family="Times,serif" font-size="11.00" fill="gray">Tests</text>
</g>
<!-- \\IMDb_Markup_Syntax\\Exceptions\\Curl_Exception -->
<g id="node3" class="node"><title>\\IMDb_Markup_Syntax\\Exceptions\\Curl_Exception</title>
<a xlink:href="Exceptions.class-curl-exception.html" xlink:title="Curl_Exception" target="_parent">
<polygon fill="none" stroke="black" points="486.416,-565 377.584,-565 377.584,-529 486.416,-529 486.416,-565"/>
<text text-anchor="middle" x="432" y="-542.6" font-family="Courier,monospace" font-size="11.00">Curl_Exception</text>
</a>
</g>
<!-- \\Exception -->
<g id="node17" class="node"><title>\\Exception</title>
<ellipse fill="none" stroke="black" cx="138" cy="-466" rx="52.7417" ry="18"/>
<text text-anchor="middle" x="138" y="-460.4" font-family="Times,serif" font-size="14.00" fill="gray">\Exception</text>
</g>
<!-- \\IMDb_Markup_Syntax\\Exceptions\\Curl_Exception&#45;&gt;\\Exception -->
<g id="edge7" class="edge"><title>\\IMDb_Markup_Syntax\\Exceptions\\Curl_Exception&#45;&gt;\\Exception</title>
<path fill="none" stroke="black" d="M377.548,-532.491C362.786,-528.465 346.768,-524.08 332,-520 283.511,-506.605 228.233,-491.116 189.3,-480.171"/>
<polygon fill="none" stroke="black" points="189.845,-476.688 179.27,-477.35 187.949,-483.427 189.845,-476.688"/>
</g>
<!-- \\IMDb_Markup_Syntax\\Exceptions\\Error_Runtime_Exception -->
<g id="node4" class="node"><title>\\IMDb_Markup_Syntax\\Exceptions\\Error_Runtime_Exception</title>
<a xlink:href="Exceptions.class-error-runtime-exception.html" xlink:title="Error_Runtime_Exception" target="_parent">
<polygon fill="none" stroke="black" points="515.825,-511 348.175,-511 348.175,-475 515.825,-475 515.825,-511"/>
<text text-anchor="middle" x="432" y="-488.6" font-family="Courier,monospace" font-size="11.00">Error_Runtime_Exception</text>
</a>
</g>
<!-- \\IMDb_Markup_Syntax\\Exceptions\\Error_Runtime_Exception&#45;&gt;\\Exception -->
<g id="edge9" class="edge"><title>\\IMDb_Markup_Syntax\\Exceptions\\Error_Runtime_Exception&#45;&gt;\\Exception</title>
<path fill="none" stroke="black" d="M348.106,-485.335C300.653,-480.947 242.186,-475.541 199.152,-471.562"/>
<polygon fill="none" stroke="black" points="199.393,-468.069 189.114,-470.634 198.749,-475.04 199.393,-468.069"/>
</g>
<!-- \\IMDb_Markup_Syntax\\Exceptions\\Json_Exception -->
<g id="node5" class="node"><title>\\IMDb_Markup_Syntax\\Exceptions\\Json_Exception</title>
<a xlink:href="Exceptions.class-json-exception.html" xlink:title="Json_Exception" target="_parent">
<polygon fill="none" stroke="black" points="486.416,-457 377.584,-457 377.584,-421 486.416,-421 486.416,-457"/>
<text text-anchor="middle" x="432" y="-434.6" font-family="Courier,monospace" font-size="11.00">Json_Exception</text>
</a>
</g>
<!-- \\IMDb_Markup_Syntax\\Exceptions\\Json_Exception&#45;&gt;\\Exception -->
<g id="edge11" class="edge"><title>\\IMDb_Markup_Syntax\\Exceptions\\Json_Exception&#45;&gt;\\Exception</title>
<path fill="none" stroke="black" d="M377.782,-443.921C327.508,-448.57 252.171,-455.536 199.606,-460.396"/>
<polygon fill="none" stroke="black" points="199.046,-456.933 189.411,-461.339 199.691,-463.903 199.046,-456.933"/>
</g>
<!-- \\IMDb_Markup_Syntax\\Exceptions\\PCRE_Exception -->
<g id="node6" class="node"><title>\\IMDb_Markup_Syntax\\Exceptions\\PCRE_Exception</title>
<a xlink:href="Exceptions.class-pcre-exception.html" xlink:title="PCRE_Exception" target="_parent">
<polygon fill="none" stroke="black" points="486.416,-403 377.584,-403 377.584,-367 486.416,-367 486.416,-403"/>
<text text-anchor="middle" x="432" y="-380.6" font-family="Courier,monospace" font-size="11.00">PCRE_Exception</text>
</a>
</g>
<!-- \\IMDb_Markup_Syntax\\Exceptions\\PCRE_Exception&#45;&gt;\\Exception -->
<g id="edge13" class="edge"><title>\\IMDb_Markup_Syntax\\Exceptions\\PCRE_Exception&#45;&gt;\\Exception</title>
<path fill="none" stroke="black" d="M377.548,-399.509C362.786,-403.535 346.768,-407.92 332,-412 283.511,-425.395 228.233,-440.884 189.3,-451.829"/>
<polygon fill="none" stroke="black" points="187.949,-448.573 179.27,-454.65 189.845,-455.312 187.949,-448.573"/>
</g>
<!-- \\IMDb_Markup_Syntax\\Tests\\Markup_DataTest -->
<g id="node8" class="node"><title>\\IMDb_Markup_Syntax\\Tests\\Markup_DataTest</title>
<a xlink:href="Tests.Markup_DataTest.html" xlink:title="Markup_DataTest" target="_parent">
<polygon fill="none" stroke="black" points="489.516,-322 374.484,-322 374.484,-286 489.516,-286 489.516,-322"/>
<text text-anchor="middle" x="432" y="-299.6" font-family="Courier,monospace" font-size="11.00">Markup_DataTest</text>
</a>
</g>
<!-- \\PHPUnit_Framework_TestCase -->
<g id="node22" class="node"><title>\\PHPUnit_Framework_TestCase</title>
<ellipse fill="none" stroke="black" cx="138" cy="-250" rx="137.502" ry="18"/>
<text text-anchor="middle" x="138" y="-244.4" font-family="Times,serif" font-size="14.00" fill="gray">\PHPUnit_Framework_TestCase</text>
</g>
<!-- \\IMDb_Markup_Syntax\\Tests\\Markup_DataTest&#45;&gt;\\PHPUnit_Framework_TestCase -->
<g id="edge15" class="edge"><title>\\IMDb_Markup_Syntax\\Tests\\Markup_DataTest&#45;&gt;\\PHPUnit_Framework_TestCase</title>
<path fill="none" stroke="black" d="M374.353,-293.524C332.857,-285.85 275.714,-275.283 228.125,-266.482"/>
<polygon fill="none" stroke="black" points="228.594,-263.01 218.125,-264.633 227.321,-269.893 228.594,-263.01"/>
</g>
<!-- \\IMDb_Markup_Syntax\\Tests\\Movie_DatasourceTest -->
<g id="node9" class="node"><title>\\IMDb_Markup_Syntax\\Tests\\Movie_DatasourceTest</title>
<a xlink:href="Tests.Movie_DatasourceTest.html" xlink:title="Movie_DatasourceTest" target="_parent">
<polygon fill="none" stroke="black" points="506.021,-268 357.979,-268 357.979,-232 506.021,-232 506.021,-268"/>
<text text-anchor="middle" x="432" y="-245.6" font-family="Courier,monospace" font-size="11.00">Movie_DatasourceTest</text>
</a>
</g>
<!-- \\IMDb_Markup_Syntax\\Tests\\Movie_DatasourceTest&#45;&gt;\\PHPUnit_Framework_TestCase -->
<g id="edge17" class="edge"><title>\\IMDb_Markup_Syntax\\Tests\\Movie_DatasourceTest&#45;&gt;\\PHPUnit_Framework_TestCase</title>
<path fill="none" stroke="black" d="M357.693,-250C335.718,-250 310.793,-250 285.836,-250"/>
<polygon fill="none" stroke="black" points="285.526,-246.5 275.526,-250 285.526,-253.5 285.526,-246.5"/>
</g>
<!-- \\IMDb_Markup_Syntax\\Tests\\Tag_ProcessingTest -->
<g id="node10" class="node"><title>\\IMDb_Markup_Syntax\\Tests\\Tag_ProcessingTest</title>
<a xlink:href="Tests.Tag_ProcessingTest.html" xlink:title="Tag_ProcessingTest" target="_parent">
<polygon fill="none" stroke="black" points="499.319,-214 364.681,-214 364.681,-178 499.319,-178 499.319,-214"/>
<text text-anchor="middle" x="432" y="-191.6" font-family="Courier,monospace" font-size="11.00">Tag_ProcessingTest</text>
</a>
</g>
<!-- \\IMDb_Markup_Syntax\\Tests\\Tag_ProcessingTest&#45;&gt;\\PHPUnit_Framework_TestCase -->
<g id="edge19" class="edge"><title>\\IMDb_Markup_Syntax\\Tests\\Tag_ProcessingTest&#45;&gt;\\PHPUnit_Framework_TestCase</title>
<path fill="none" stroke="black" d="M364.375,-208.321C324.086,-215.772 272.212,-225.365 228.389,-233.469"/>
<polygon fill="none" stroke="black" points="227.5,-230.074 218.304,-235.334 228.773,-236.957 227.5,-230.074"/>
</g>
<!-- \\IMDb_Markup_Syntax\\Markup_Data -->
<g id="node11" class="node"><title>\\IMDb_Markup_Syntax\\Markup_Data</title>
<a xlink:href="class-markup-data.html" xlink:title="Markup_Data" target="_parent">
<polygon fill="none" stroke="black" points="476.113,-160 387.887,-160 387.887,-124 476.113,-124 476.113,-160"/>
<text text-anchor="middle" x="432" y="-137.6" font-family="Courier,monospace" font-size="11.00">Markup_Data</text>
</a>
</g>
<!-- \\IMDb_Markup_Syntax\\Movie_Datasource -->
<g id="node12" class="node"><title>\\IMDb_Markup_Syntax\\Movie_Datasource</title>
<a xlink:href="class-movie-datasource.html" xlink:title="Movie_Datasource" target="_parent">
<polygon fill="none" stroke="black" points="492.618,-106 371.382,-106 371.382,-70 492.618,-70 492.618,-106"/>
<text text-anchor="middle" x="432" y="-83.6" font-family="Courier,monospace" font-size="11.00">Movie_Datasource</text>
</a>
</g>
<!-- \\IMDb -->
<g id="node15" class="node"><title>\\IMDb</title>
<ellipse fill="none" stroke="black" cx="138" cy="-88" rx="37.1495" ry="18"/>
<text text-anchor="middle" x="138" y="-82.4" font-family="Times,serif" font-size="14.00" fill="gray">\IMDb</text>
</g>
<!-- \\IMDb_Markup_Syntax\\Movie_Datasource&#45;&gt;\\IMDb -->
<g id="edge5" class="edge"><title>\\IMDb_Markup_Syntax\\Movie_Datasource&#45;&gt;\\IMDb</title>
<path fill="none" stroke="black" d="M371.205,-88C316.373,-88 236.268,-88 185.921,-88"/>
<polygon fill="none" stroke="black" points="185.649,-84.5001 175.649,-88 185.649,-91.5001 185.649,-84.5001"/>
</g>
<!-- \\IMDb_Markup_Syntax\\Tag_Processing -->
<g id="node13" class="node"><title>\\IMDb_Markup_Syntax\\Tag_Processing</title>
<a xlink:href="class-tag-processing.html" xlink:title="Tag_Processing" target="_parent">
<polygon fill="none" stroke="black" points="486.416,-52 377.584,-52 377.584,-16 486.416,-16 486.416,-52"/>
<text text-anchor="middle" x="432" y="-29.6" font-family="Courier,monospace" font-size="11.00">Tag_Processing</text>
</a>
</g>
</g>
</svg>
